<svg width="512" height="512" viewBox="0 0 512 512" fill="none" xmlns="http://www.w3.org/2000/svg">
  <defs>
    <linearGradient id="bg" x1="0" y1="0" x2="512" y2="512" gradientUnits="userSpaceOnUse">
      <stop stop-color="#16202d"/>
      <stop offset="1" stop-color="#070a0f"/>
    </linearGradient>
    <radialGradient id="glow" cx="343" cy="170" r="320" gradientUnits="userSpaceOnUse">
      <stop stop-color="#ff7a40" stop-opacity="0.36"/>
      <stop offset="1" stop-color="#ff7a40" stop-opacity="0"/>
    </radialGradient>
    <radialGradient id="seaGlow" cx="160" cy="420" r="300" gradientUnits="userSpaceOnUse">
      <stop stop-color="#2ad0ef" stop-opacity="0.18"/>
      <stop offset="1" stop-color="#2ad0ef" stop-opacity="0"/>
    </radialGradient>
    <!-- Same mark as the in-app <Logo>; kept inside the maskable safe zone
         (central 80% circle) so platform masks never clip it. Full-bleed bg. -->
    <linearGradient id="stablo-table" x1="6" y1="34" x2="42" y2="34" gradientUnits="userSpaceOnUse">
      <stop stop-color="#ff7a40"/>
      <stop offset="1" stop-color="#ff6a2c"/>
    </linearGradient>
    <clipPath id="stablo-ball-clip"><circle r="100"/></clipPath>
  </defs>

  <rect width="512" height="512" fill="url(#bg)"/>
  <rect width="512" height="512" fill="url(#glow)"/>
  <rect width="512" height="512" fill="url(#seaGlow)"/>

  <g transform="translate(73.6,75.5) scale(7.6)">
    <path d="M6 34c0-7 8-11 18-11s18 4 18 11" stroke="url(#stablo-table)" stroke-width="4" stroke-linecap="round"/>
    <path d="M24 23v15" stroke="#2ad0ef" stroke-width="3" stroke-linecap="round"/>
    <path d="M11 34l-2 6M37 34l2 6" stroke="url(#stablo-table)" stroke-width="3" stroke-linecap="round"/>
    <g transform="translate(33,13) scale(0.07)" clip-path="url(#stablo-ball-clip)">
      <circle r="100" fill="#d7ff3e"/>
      <path d="M0,-41.8L0,-108" stroke="#10131a" stroke-width="9" stroke-linecap="round"/>
      <path d="M39.75,-12.92L102.71,-33.37" stroke="#10131a" stroke-width="9" stroke-linecap="round"/>
      <path d="M24.57,33.82L63.48,87.37" stroke="#10131a" stroke-width="9" stroke-linecap="round"/>
      <path d="M-24.57,33.82L-63.48,87.37" stroke="#10131a" stroke-width="9" stroke-linecap="round"/>
      <path d="M-39.75,-12.92L-102.71,-33.37" stroke="#10131a" stroke-width="9" stroke-linecap="round"/>
      <path d="M0,-44L41.85,-13.6L25.86,35.6L-25.86,35.6L-41.85,-13.6Z" fill="#10131a"/>
      <path d="M36.44,-50.16L25.54,-83.7L54.08,-104.43L82.61,-83.7L71.71,-50.16Z" fill="#10131a"/>
      <path d="M58.97,19.16L87.5,-1.57L116.03,19.16L105.13,52.7L69.86,52.7Z" fill="#10131a"/>
      <path d="M0,62L28.53,82.73L17.63,116.27L-17.63,116.27L-28.53,82.73Z" fill="#10131a"/>
      <path d="M-58.97,19.16L-69.86,52.7L-105.13,52.7L-116.03,19.16L-87.5,-1.57Z" fill="#10131a"/>
      <path d="M-36.44,-50.16L-71.71,-50.16L-82.61,-83.7L-54.08,-104.43L-25.54,-83.7Z" fill="#10131a"/>
    </g>
  </g>
</svg>
