<svg width="512" height="512" viewBox="0 0 512 512" fill="none" xmlns="http://www.w3.org/2000/svg">
  <defs>
    <linearGradient id="bgm" x1="0" y1="0" x2="512" y2="512" gradientUnits="userSpaceOnUse">
      <stop stop-color="#ff8a4d"/>
      <stop offset="0.55" stop-color="#ff6a2c"/>
      <stop offset="1" stop-color="#e8480a"/>
    </linearGradient>
    <radialGradient id="bgmGlow" cx="256" cy="168" r="300" gradientUnits="userSpaceOnUse">
      <stop stop-color="#ffffff" stop-opacity="0.22"/>
      <stop offset="1" stop-color="#ffffff" stop-opacity="0"/>
    </radialGradient>
    <linearGradient id="tablem" x1="150" y1="300" x2="362" y2="360" gradientUnits="userSpaceOnUse">
      <stop stop-color="#ffffff"/>
      <stop offset="1" stop-color="#ffe3d3"/>
    </linearGradient>
    <radialGradient id="ballm" cx="316" cy="184" r="60" gradientUnits="userSpaceOnUse">
      <stop stop-color="#eaff8a"/>
      <stop offset="0.5" stop-color="#d7ff3e"/>
      <stop offset="1" stop-color="#acd424"/>
    </radialGradient>
  </defs>

  <rect width="512" height="512" fill="url(#bgm)"/>
  <rect width="512" height="512" fill="url(#bgmGlow)"/>

  <ellipse cx="256" cy="392" rx="120" ry="14" fill="#7a2603" opacity="0.30"/>

  <path d="M150 330c0-58 50-92 106-92s106 34 106 92" stroke="url(#tablem)" stroke-width="30" stroke-linecap="round"/>
  <path d="M186 330l-16 40M326 330l16 40" stroke="url(#tablem)" stroke-width="24" stroke-linecap="round"/>
  <path d="M256 244v122" stroke="#3a1402" stroke-width="22" stroke-linecap="round" opacity="0.9"/>

  <circle cx="328" cy="196" r="40" fill="url(#ballm)"/>
  <path d="M306 186l22 11 22-11M328 164v22" stroke="#2a3300" stroke-width="9" stroke-linecap="round" stroke-linejoin="round"/>
  <circle cx="314" cy="182" r="9" fill="#ffffff" opacity="0.5"/>
</svg>
