<svg width="512" height="512" viewBox="0 0 512 512" fill="none" xmlns="http://www.w3.org/2000/svg">
  <defs>
    <linearGradient id="bgm" x1="0" y1="0" x2="512" y2="512" gradientUnits="userSpaceOnUse">
      <stop stop-color="#ff8a4d"/>
      <stop offset="0.55" stop-color="#ff6a2c"/>
      <stop offset="1" stop-color="#e8480a"/>
    </linearGradient>
    <radialGradient id="bgmGlow" cx="256" cy="168" r="300" gradientUnits="userSpaceOnUse">
      <stop stop-color="#ffffff" stop-opacity="0.22"/>
      <stop offset="1" stop-color="#ffffff" stop-opacity="0"/>
    </radialGradient>
    <linearGradient id="tablem" x1="150" y1="300" x2="362" y2="360" gradientUnits="userSpaceOnUse">
      <stop stop-color="#ffffff"/>
      <stop offset="1" stop-color="#ffe3d3"/>
    </linearGradient>
    <!-- Footvolley ball (Mikasa FT-5 style): yellow sphere + black soccer panels. -->
    <radialGradient id="ballY" cx="0.36" cy="0.30" r="0.82">
      <stop offset="0" stop-color="#fff27a"/>
      <stop offset="0.5" stop-color="#ffd21a"/>
      <stop offset="1" stop-color="#b88900"/>
    </radialGradient>
    <radialGradient id="ballGloss" cx="0.5" cy="0.5" r="0.5">
      <stop offset="0" stop-color="#ffffff" stop-opacity="0.5"/>
      <stop offset="1" stop-color="#ffffff" stop-opacity="0"/>
    </radialGradient>
    <clipPath id="ballClip"><circle r="100"/></clipPath>
  </defs>

  <rect width="512" height="512" fill="url(#bgm)"/>
  <rect width="512" height="512" fill="url(#bgmGlow)"/>

  <ellipse cx="256" cy="392" rx="120" ry="14" fill="#7a2603" opacity="0.30"/>

  <path d="M150 330c0-58 50-92 106-92s106 34 106 92" stroke="url(#tablem)" stroke-width="30" stroke-linecap="round"/>
  <path d="M186 330l-16 40M326 330l16 40" stroke="url(#tablem)" stroke-width="24" stroke-linecap="round"/>
  <path d="M256 244v122" stroke="#3a1402" stroke-width="22" stroke-linecap="round" opacity="0.9"/>

  <g transform="translate(328,196) scale(0.4)" clip-path="url(#ballClip)">
    <circle r="100" fill="url(#ballY)"/>
    <path d="M0,-33.3L0,-108" stroke="#10131a" stroke-width="6" stroke-linecap="round"/>
    <path d="M31.67,-10.29L102.71,-33.37" stroke="#10131a" stroke-width="6" stroke-linecap="round"/>
    <path d="M19.57,26.94L63.48,87.37" stroke="#10131a" stroke-width="6" stroke-linecap="round"/>
    <path d="M-19.57,26.94L-63.48,87.37" stroke="#10131a" stroke-width="6" stroke-linecap="round"/>
    <path d="M-31.67,-10.29L-102.71,-33.37" stroke="#10131a" stroke-width="6" stroke-linecap="round"/>
    <path d="M0,-37L35.19,-11.43L21.75,29.93L-21.75,29.93L-35.19,-11.43Z" fill="#10131a"/>
    <path d="M33.5,-46.11L21.52,-83.01L52.9,-105.81L84.29,-83.01L72.3,-46.11Z" fill="#10131a"/>
    <path d="M54.21,17.61L85.6,-5.19L116.98,17.61L104.99,54.51L66.2,54.51Z" fill="#10131a"/>
    <path d="M0,57L31.38,79.8L19.4,116.7L-19.4,116.7L-31.38,79.8Z" fill="#10131a"/>
    <path d="M-54.21,17.61L-66.2,54.51L-104.99,54.51L-116.98,17.61L-85.6,-5.19Z" fill="#10131a"/>
    <path d="M-33.5,-46.11L-72.3,-46.11L-84.29,-83.01L-52.9,-105.81L-21.52,-83.01Z" fill="#10131a"/>
    <circle cx="-30" cy="-36" r="42" fill="url(#ballGloss)"/>
  </g>
</svg>
