<!-- Head favicon (Next file convention → <link rel="icon">). Keep visually in sync with public/icon.svg, which the web manifest references by stable URL. -->
<svg width="512" height="512" viewBox="0 0 512 512" fill="none" xmlns="http://www.w3.org/2000/svg">
  <defs>
    <linearGradient id="bg" x1="0" y1="0" x2="512" y2="512" gradientUnits="userSpaceOnUse">
      <stop stop-color="#141d29"/>
      <stop offset="1" stop-color="#070a0f"/>
    </linearGradient>
    <radialGradient id="glow" cx="368" cy="138" r="320" gradientUnits="userSpaceOnUse">
      <stop stop-color="#ff7a40" stop-opacity="0.45"/>
      <stop offset="1" stop-color="#ff7a40" stop-opacity="0"/>
    </radialGradient>
    <radialGradient id="seaGlow" cx="150" cy="430" r="280" gradientUnits="userSpaceOnUse">
      <stop stop-color="#2ad0ef" stop-opacity="0.28"/>
      <stop offset="1" stop-color="#2ad0ef" stop-opacity="0"/>
    </radialGradient>
    <linearGradient id="table" x1="96" y1="300" x2="416" y2="392" gradientUnits="userSpaceOnUse">
      <stop stop-color="#ff9356"/>
      <stop offset="0.55" stop-color="#ff6a2c"/>
      <stop offset="1" stop-color="#f0510f"/>
    </linearGradient>
    <radialGradient id="ball" cx="344" cy="134" r="80" gradientUnits="userSpaceOnUse">
      <stop stop-color="#eaff8a"/>
      <stop offset="0.5" stop-color="#d7ff3e"/>
      <stop offset="1" stop-color="#a6cc1f"/>
    </radialGradient>
    <radialGradient id="ballHalo" cx="360" cy="150" r="96" gradientUnits="userSpaceOnUse">
      <stop stop-color="#d7ff3e" stop-opacity="0.55"/>
      <stop offset="1" stop-color="#d7ff3e" stop-opacity="0"/>
    </radialGradient>
    <filter id="soft" x="-30%" y="-30%" width="160%" height="160%">
      <feDropShadow dx="0" dy="12" stdDeviation="16" flood-color="#000000" flood-opacity="0.45"/>
    </filter>
  </defs>

  <rect width="512" height="512" rx="116" fill="url(#bg)"/>
  <rect width="512" height="512" rx="116" fill="url(#glow)"/>
  <rect width="512" height="512" rx="116" fill="url(#seaGlow)"/>

  <ellipse cx="256" cy="426" rx="152" ry="18" fill="#000000" opacity="0.30"/>

  <g filter="url(#soft)">
    <path d="M92 360c0-74 82-122 164-122s164 48 164 122" stroke="url(#table)" stroke-width="38" stroke-linecap="round"/>
    <path d="M134 360l-22 58M378 360l22 58" stroke="url(#table)" stroke-width="30" stroke-linecap="round"/>
  </g>

  <path d="M256 236v150" stroke="#2ad0ef" stroke-width="28" stroke-linecap="round"/>
  <path d="M256 244v66" stroke="#bff4ff" stroke-width="10" stroke-linecap="round" opacity="0.55"/>

  <circle cx="360" cy="150" r="96" fill="url(#ballHalo)"/>
  <circle cx="360" cy="150" r="54" fill="url(#ball)"/>
  <path d="M331 137l29 15 29-15M360 108v30" stroke="#1a2200" stroke-width="13" stroke-linecap="round" stroke-linejoin="round" opacity="0.85"/>
  <circle cx="342" cy="132" r="13" fill="#ffffff" opacity="0.45"/>
</svg>
